<?xml version="1.0" encoding="UTF-8" standalone="no"?>
<!-- Created with Inkscape (http://www.inkscape.org/) -->

<svg
   xmlns:dc="http://purl.org/dc/elements/1.1/"
   xmlns:cc="http://creativecommons.org/ns#"
   xmlns:rdf="http://www.w3.org/1999/02/22-rdf-syntax-ns#"
   xmlns:svg="http://www.w3.org/2000/svg"
   xmlns="http://www.w3.org/2000/svg"
   xmlns:sodipodi="http://sodipodi.sourceforge.net/DTD/sodipodi-0.dtd"
   xmlns:inkscape="http://www.inkscape.org/namespaces/inkscape"
   width="610"
   height="340"
   viewBox="0 0 610 340"
   id="svg4787"
   version="1.1"
   inkscape:version="0.91 r13725"
   sodipodi:docname="logo_rev4.svg">
  <defs
     id="defs4789" />
  <sodipodi:namedview
     id="base"
     pagecolor="#ffffff"
     bordercolor="#666666"
     borderopacity="1.0"
     inkscape:pageopacity="0.0"
     inkscape:pageshadow="2"
     inkscape:zoom="1"
     inkscape:cx="379.64052"
     inkscape:cy="43.24645"
     inkscape:document-units="px"
     inkscape:current-layer="text6225"
     showgrid="false"
     units="px"
     fit-margin-top="0"
     fit-margin-left="0"
     fit-margin-right="0"
     fit-margin-bottom="0"
     inkscape:window-width="1680"
     inkscape:window-height="999"
     inkscape:window-x="1024"
     inkscape:window-y="25"
     inkscape:window-maximized="1" />
  <metadata
     id="metadata4792">
    <rdf:RDF>
      <cc:Work
         rdf:about="">
        <dc:format>image/svg+xml</dc:format>
        <dc:type
           rdf:resource="http://purl.org/dc/dcmitype/StillImage" />
        <dc:title></dc:title>
      </cc:Work>
    </rdf:RDF>
  </metadata>
  <g
     inkscape:label="Layer 1"
     inkscape:groupmode="layer"
     id="layer1"
     transform="translate(-22.870829,-7.0125745)">
    <g
       id="g5371"
       transform="translate(4.9999999,-4.9999855)">
      <path
         style="opacity:1;fill:#000000;fill-opacity:1;stroke:#000000;stroke-width:1;stroke-linecap:round;stroke-linejoin:round;stroke-miterlimit:4;stroke-dasharray:none;stroke-opacity:1"
         d="m 178.41665,225.0126 -15.5332,0 A 164.5,164.5 0 0 0 321.46939,346.51256 164.5,164.5 0 0 0 480.19986,225.0126 l -15.60742,0 A 149.5,149.5 0 0 1 321.46939,331.51256 149.5,149.5 0 0 1 178.41665,225.0126 Z"
         id="path6205"
         inkscape:connector-curvature="0" />
      <path
         style="opacity:1;fill:#000000;fill-opacity:1;stroke:#000000;stroke-width:1;stroke-linecap:round;stroke-linejoin:round;stroke-miterlimit:4;stroke-dasharray:none;stroke-opacity:1"
         d="M 321.46939,17.512605 A 164.5,164.5 0 0 0 163.29361,137.0126 l 15.65234,0 A 149.5,149.5 0 0 1 321.46939,32.512605 149.5,149.5 0 0 1 463.85806,137.0126 l 15.68555,0 A 164.5,164.5 0 0 0 321.46939,17.512605 Z"
         id="path6207"
         inkscape:connector-curvature="0" />
      <g
         id="g6209"
         transform="translate(121.46939,-588.73739)">
        <g
           id="g6211">
          <path
             sodipodi:nodetypes="cccccccsssssccccc"
             inkscape:connector-curvature="0"
             id="path6213"
             d="m 114.10938,659.75977 c -0.99533,20.72936 -3.07274,35.64015 -4.53907,49.30468 31.57259,1.49459 64.02951,2.54812 100.30469,1.69141 -1.48575,-8.73453 -2.74512,-19.04507 -2.66992,-22.42774 l 2.66992,0.17774 c -0.95284,-7.38527 -1.7114,-15.13526 -0.80273,-23.05078 -32.45641,-0.89823 -63.92854,-2.42697 -94.96289,-5.69531 z m 8.0332,9.52539 c 2.16275,0 3.91601,1.75326 3.91601,3.91601 1e-5,2.16276 -1.75325,3.91602 -3.91601,3.91602 -2.16276,10e-6 -3.91603,-1.75326 -3.91602,-3.91602 0,-2.16276 1.75326,-3.91602 3.91602,-3.91601 z m -8.56641,30.43554 c 29.54437,1.59127 59.85233,2.49829 91.53711,1.49024 0.0984,0.93287 0.0249,1.44896 0.22155,2.29128 -39.79098,0.54911 -67.32945,-0.30451 -92.11524,-1.64649 0.15502,-0.59915 0.26015,-1.06713 0.35658,-2.13503 z"
             style="opacity:1;fill:#000000;fill-opacity:1;fill-rule:evenodd;stroke:#000000;stroke-width:1px;stroke-linecap:butt;stroke-linejoin:round;stroke-opacity:1" />
          <path
             id="path6215"
             d="m 212.54492,665.72266 c -2.37643,12.92214 0.0177,14.7112 0.17774,21.71484 7.08803,-1.78555 20.15826,-2.28921 41.47461,0.17773 14.69872,-1.86802 26.78003,-1.13749 38.17968,-0.17773 -1.14307,-6.37012 2.78118,-15.94247 -3.76953,-21.31055 -2.02672,0.36661 -69.37346,0.0868 -76.0625,-0.40429 z m 76.0625,0.40429 c 0.085,-0.0154 0.0974,-0.0311 -0.0566,-0.0488 0.0198,0.016 0.0371,0.0328 0.0566,0.0488 z m -36.54687,5.64649 a 3.9160099,3.9160099 0 0 1 3.91601,3.91601 3.9160099,3.9160099 0 0 1 -3.91601,3.91602 3.9160099,3.9160099 0 0 1 -3.91602,-3.91602 3.9160099,3.9160099 0 0 1 3.91602,-3.91601 z m 26.87695,0.17773 a 3.9160099,3.9160099 0 0 1 3.91602,3.91602 3.9160099,3.9160099 0 0 1 -3.91602,3.91601 3.9160099,3.9160099 0 0 1 -3.91602,-3.91601 3.9160099,3.9160099 0 0 1 3.91602,-3.91602 z m -53.75586,0.17969 a 3.9160099,3.9160099 0 0 1 3.91602,3.91602 3.9160099,3.9160099 0 0 1 -3.91602,3.91601 3.9160099,3.9160099 0 0 1 -3.91602,-3.91601 3.9160099,3.9160099 0 0 1 3.91602,-3.91602 z"
             style="opacity:1;fill:#000000;fill-opacity:1;fill-rule:evenodd;stroke:#000000;stroke-width:1px;stroke-linecap:round;stroke-linejoin:round;stroke-opacity:1"
             inkscape:connector-curvature="0" />
        </g>
      </g>
      <g
         id="g6217"
         transform="translate(123.46939,-587.35287)">
        <g
           id="g6219">
          <path
             id="path6221"
             transform="translate(-2,-1.3845186)"
             d="m 123.41406,838.65234 c -3.31521,0.0156 -6.6652,0.10228 -10.0625,0.28711 -0.89538,6.91218 -5.13324,13.3858 -1.86914,19.58008 4.03715,-0.1517 7.22741,-0.0733 13.70508,-0.89062 9.5456,1.06276 17.2661,3.44683 26.16602,2.75976 7.28579,-1.05329 16.14244,-2.06609 27.4121,-1.86914 4.38522,0.23622 7.89189,0.96787 12.63868,3.55859 0.18875,-8.02308 2.92079,-18.82283 -0.0899,-22.96093 -23.24495,2.77658 -44.69389,-0.57433 -67.90039,-0.46485 z m 29.24414,5.63477 a 3.9160099,3.9160099 0 0 1 3.91602,3.91601 3.9160099,3.9160099 0 0 1 -3.91602,3.91602 3.9160099,3.9160099 0 0 1 -3.91601,-3.91602 3.9160099,3.9160099 0 0 1 3.91601,-3.91601 z m -26.68359,0.25195 a 3.9160099,3.9160099 0 0 1 3.91601,3.91602 3.9160099,3.9160099 0 0 1 -3.91601,3.91601 3.9160099,3.9160099 0 0 1 -3.91602,-3.91601 3.9160099,3.9160099 0 0 1 3.91602,-3.91602 z m 53.56445,0.0137 a 3.9160099,3.9160099 0 0 1 3.91602,3.91602 3.9160099,3.9160099 0 0 1 -3.91602,3.91602 3.9160099,3.9160099 0 0 1 -3.91601,-3.91602 3.9160099,3.9160099 0 0 1 3.91601,-3.91602 z"
             style="opacity:1;fill:#000000;fill-opacity:1;fill-rule:evenodd;stroke:#000000;stroke-width:1px;stroke-linecap:butt;stroke-linejoin:round;stroke-opacity:1"
             inkscape:connector-curvature="0" />
          <path
             id="path6223"
             transform="translate(-2,-1.3845186)"
             d="m 297.13672,838.93945 -101.01563,0.26563 c 0.13874,12.01128 -0.69999,22.63191 -1.6914,32.66406 38.27989,-0.7357 94.29314,-7.25139 102.70703,-32.92969 z m -5.60742,2.66993 c -5.71605,11.76194 -33.4539,25.84578 -94.16211,26.2539 l 0.0898,-2.58008 c 28.49812,0.93952 80.39392,-5.45233 90.51172,-23.58593 l 3.56055,-0.0879 z"
             style="opacity:1;fill:#000000;fill-opacity:1;fill-rule:evenodd;stroke:#000000;stroke-width:1px;stroke-linecap:butt;stroke-linejoin:round;stroke-opacity:1"
             inkscape:connector-curvature="0" />
        </g>
      </g>
      <g
         style="font-style:normal;font-weight:normal;font-size:40px;line-height:125%;font-family:sans-serif;letter-spacing:0px;word-spacing:0px;fill:#000000;fill-opacity:1;stroke:none;stroke-width:1px;stroke-linecap:butt;stroke-linejoin:miter;stroke-opacity:1"
         id="text6225">
        <path
           d="m 47.080829,160.26409 q -0.27,0.51 -0.78,0.51 -0.39,0 -1.02,-0.54 -0.6,-0.57 -1.65,-1.23 -1.05,-0.69 -2.64,-1.26 -1.56,-0.57 -3.87,-0.57 -2.31,0 -4.08,0.66 -1.74,0.66 -2.94,1.8 -1.17,1.14 -1.8,2.64 -0.6,1.5 -0.6,3.15 0,2.16 0.9,3.57 0.93,1.41 2.43,2.4 1.5,0.99 3.39,1.68 1.92,0.66 3.93,1.32 2.01,0.66 3.9,1.47 1.92,0.78 3.42,1.98 1.5,1.2 2.4,2.97 0.93,1.74 0.93,4.35 0,2.67 -0.93,5.04 -0.9,2.34 -2.64,4.08 -1.74,1.74 -4.26,2.76 -2.52,0.99 -5.76,0.99 -4.2,0 -7.23,-1.47 -3.03,-1.5 -5.31,-4.08 l 0.84,-1.32 q 0.36,-0.45 0.84,-0.45 0.27,0 0.69,0.36 0.42,0.36 1.02,0.9 0.6,0.51 1.44,1.14 0.84,0.6 1.95,1.14 1.11,0.51 2.55,0.87 1.44,0.36 3.27,0.36 2.52,0 4.5,-0.75 1.98,-0.78 3.33,-2.1 1.38,-1.32 2.1,-3.12 0.72,-1.83 0.72,-3.9 0,-2.25 -0.93,-3.69 -0.9,-1.47 -2.4,-2.43 -1.5,-0.99 -3.42,-1.65 -1.89,-0.66 -3.9,-1.29 -2.01,-0.63 -3.93,-1.41 -1.89,-0.78 -3.39,-1.98 -1.5,-1.23 -2.43,-3.03 -0.9,-1.83 -0.9,-4.56 0,-2.13 0.81,-4.11 0.81,-1.98 2.37,-3.48 1.56,-1.53 3.84,-2.43 2.31,-0.93 5.25,-0.93 3.3,0 5.91,1.05 2.64,1.05 4.8,3.21 l -0.72,1.38 z"
           style="font-style:normal;font-variant:normal;font-weight:300;font-stretch:normal;font-size:60px;font-family:Lato;-inkscape-font-specification:'Lato Light'"
           id="path4241" />
        <path
           d="m 68.698641,167.22409 q 3.21,0 5.73,1.11 2.55,1.08 4.29,3.09 1.74,2.01 2.64,4.86 0.93,2.82 0.93,6.33 0,3.51 -0.93,6.33 -0.9,2.82 -2.64,4.83 -1.74,2.01 -4.29,3.09 -2.52,1.08 -5.73,1.08 -3.21,0 -5.76,-1.08 -2.52,-1.08 -4.29,-3.09 -1.74,-2.01 -2.67,-4.83 -0.9,-2.82 -0.9,-6.33 0,-3.51 0.9,-6.33 0.93,-2.85 2.67,-4.86 1.77,-2.01 4.29,-3.09 2.55,-1.11 5.76,-1.11 z m 0,28.47 q 2.67,0 4.65,-0.9 2.01,-0.93 3.33,-2.64 1.35,-1.71 2.01,-4.11 0.66,-2.43 0.66,-5.43 0,-2.97 -0.66,-5.4 -0.66,-2.43 -2.01,-4.14 -1.32,-1.74 -3.33,-2.67 -1.98,-0.93 -4.65,-0.93 -2.67,0 -4.68,0.93 -1.98,0.93 -3.33,2.67 -1.32,1.71 -2.01,4.14 -0.66,2.43 -0.66,5.4 0,3 0.66,5.43 0.69,2.4 2.01,4.11 1.35,1.71 3.33,2.64 2.01,0.9 4.68,0.9 z"
           style="font-style:normal;font-variant:normal;font-weight:300;font-stretch:normal;font-size:60px;font-family:Lato;-inkscape-font-specification:'Lato Light'"
           id="path4243" />
        <path
           d="m 92.944264,167.70409 0,19.08 q 0,4.2 1.92,6.6 1.92,2.37 5.849996,2.37 2.91,0 5.43,-1.47 2.52,-1.5 4.53,-4.14 l 0,-22.44 2.88,0 0,29.85 -1.59,0 q -0.75,0 -0.87,-0.78 l -0.27,-4.44 q -2.07,2.58 -4.8,4.14 -2.7,1.56 -6.029996,1.56 -2.49,0 -4.35,-0.78 -1.86,-0.78 -3.09,-2.25 -1.23,-1.47 -1.86,-3.54 -0.63,-2.07 -0.63,-4.68 l 0,-19.08 2.88,0 z"
           style="font-style:normal;font-variant:normal;font-weight:300;font-stretch:normal;font-size:60px;font-family:Lato;-inkscape-font-specification:'Lato Light'"
           id="path4245" />
        <path
           d="m 131.48395,198.03409 q -3.03,0 -4.74,-1.68 -1.68,-1.68 -1.68,-5.19 l 0,-20.4 -4.29,0 q -0.33,0 -0.54,-0.18 -0.21,-0.18 -0.21,-0.51 l 0,-1.11 5.1,-0.36 0.72,-10.68 q 0.06,-0.27 0.24,-0.48 0.18,-0.21 0.51,-0.21 l 1.35,0 0,11.4 9.42,0 0,2.13 -9.42,0 0,20.25 q 0,1.23 0.3,2.13 0.33,0.87 0.87,1.44 0.57,0.57 1.32,0.84 0.75,0.27 1.62,0.27 1.08,0 1.86,-0.3 0.78,-0.33 1.35,-0.69 0.57,-0.39 0.93,-0.69 0.36,-0.33 0.57,-0.33 0.24,0 0.48,0.3 l 0.78,1.26 q -1.14,1.26 -2.91,2.04 -1.74,0.75 -3.63,0.75 z"
           style="font-style:normal;font-variant:normal;font-weight:300;font-stretch:normal;font-size:60px;font-family:Lato;-inkscape-font-specification:'Lato Light'"
           id="path4247" />
        <path
           d="m 143.83176,197.55409 0,-43.65 2.88,0 0,18.87 q 2.07,-2.55 4.71,-4.05 2.67,-1.5 5.97,-1.5 2.46,0 4.32,0.78 1.89,0.78 3.12,2.25 1.23,1.47 1.86,3.54 0.63,2.07 0.63,4.68 l 0,19.08 -2.88,0 0,-19.08 q 0,-4.2 -1.92,-6.57 -1.92,-2.4 -5.85,-2.4 -2.94,0 -5.46,1.5 -2.52,1.47 -4.5,4.11 l 0,22.44 -2.88,0 z"
           style="font-style:normal;font-variant:normal;font-weight:300;font-stretch:normal;font-size:60px;font-family:Lato;-inkscape-font-specification:'Lato Light'"
           id="path4249" />
        <path
           d="m 197.6077,178.35409 0,19.2 -3.09,0 0,-42.45 10.86,0 q 7.32,0 10.95,2.85 3.66,2.82 3.66,8.31 0,2.43 -0.87,4.44 -0.84,2.01 -2.43,3.54 -1.56,1.5 -3.81,2.49 -2.22,0.96 -4.98,1.26 0.72,0.45 1.29,1.2 l 14.61,18.36 -2.64,0 q -0.51,0 -0.87,-0.15 -0.33,-0.18 -0.63,-0.63 l -13.62,-17.22 q -0.24,-0.33 -0.51,-0.57 -0.24,-0.24 -0.57,-0.36 -0.3,-0.15 -0.75,-0.21 -0.42,-0.06 -1.05,-0.06 l -5.55,0 z m 0,-2.28 7.35,0 q 2.82,0 5.04,-0.66 2.25,-0.69 3.78,-1.95 1.56,-1.26 2.37,-3.03 0.81,-1.77 0.81,-3.99 0,-4.53 -2.97,-6.72 -2.94,-2.19 -8.61,-2.19 l -7.77,0 0,18.54 z"
           style="font-style:normal;font-variant:normal;font-weight:300;font-stretch:normal;font-size:60px;font-family:Lato;-inkscape-font-specification:'Lato Light'"
           id="path4251" />
        <path
           d="m 232.32426,167.70409 0,29.85 -2.85,0 0,-29.85 2.85,0 z m 1.23,-10.29 q 0,0.54 -0.24,1.02 -0.21,0.45 -0.57,0.81 -0.36,0.36 -0.84,0.57 -0.48,0.21 -1.02,0.21 -0.54,0 -1.02,-0.21 -0.48,-0.21 -0.84,-0.57 -0.36,-0.36 -0.57,-0.81 -0.21,-0.48 -0.21,-1.02 0,-0.54 0.21,-1.02 0.21,-0.51 0.57,-0.87 0.36,-0.36 0.84,-0.57 0.48,-0.21 1.02,-0.21 0.54,0 1.02,0.21 0.48,0.21 0.84,0.57 0.36,0.36 0.57,0.87 0.24,0.48 0.24,1.02 z"
           style="font-style:normal;font-variant:normal;font-weight:300;font-stretch:normal;font-size:60px;font-family:Lato;-inkscape-font-specification:'Lato Light'"
           id="path4253" />
        <path
           d="m 253.87364,197.55409 -2.52,0 -12.6,-29.85 2.25,0 q 0.42,0 0.69,0.24 0.27,0.21 0.36,0.48 l 9.87,23.55 q 0.45,1.29 0.72,2.58 0.27,-1.29 0.75,-2.58 l 9.9,-23.55 q 0.15,-0.33 0.39,-0.51 0.27,-0.21 0.63,-0.21 l 2.16,0 -12.6,29.85 z"
           style="font-style:normal;font-variant:normal;font-weight:300;font-stretch:normal;font-size:60px;font-family:Lato;-inkscape-font-specification:'Lato Light'"
           id="path4255" />
        <path
           d="m 283.5877,167.22409 q 2.52,0 4.68,0.87 2.16,0.87 3.75,2.55 1.59,1.65 2.49,4.08 0.93,2.43 0.93,5.58 0,0.66 -0.18,0.9 -0.18,0.24 -0.6,0.24 l -21.72,0 0,0.57 q 0,3.36 0.78,5.91 0.78,2.55 2.22,4.29 1.44,1.71 3.48,2.58 2.04,0.87 4.56,0.87 2.25,0 3.9,-0.48 1.65,-0.51 2.76,-1.11 1.14,-0.63 1.8,-1.11 0.66,-0.51 0.96,-0.51 0.39,0 0.6,0.3 l 0.78,0.96 q -0.72,0.9 -1.92,1.68 -1.17,0.78 -2.64,1.35 -1.44,0.54 -3.12,0.87 -1.65,0.33 -3.33,0.33 -3.06,0 -5.58,-1.05 -2.52,-1.08 -4.32,-3.12 -1.8,-2.04 -2.79,-4.98 -0.96,-2.97 -0.96,-6.78 0,-3.21 0.9,-5.91 0.93,-2.73 2.64,-4.68 1.74,-1.98 4.23,-3.09 2.52,-1.11 5.7,-1.11 z m 0.03,2.13 q -2.31,0 -4.14,0.72 -1.83,0.72 -3.18,2.07 -1.32,1.35 -2.16,3.24 -0.81,1.89 -1.08,4.23 l 19.8,0 q 0,-2.4 -0.69,-4.29 -0.66,-1.92 -1.89,-3.24 -1.23,-1.32 -2.94,-2.01 -1.68,-0.72 -3.72,-0.72 z"
           style="font-style:normal;font-variant:normal;font-weight:300;font-stretch:normal;font-size:60px;font-family:Lato;-inkscape-font-specification:'Lato Light'"
           id="path4257" />
        <path
           d="m 303.20676,197.55409 0,-29.85 1.53,0 q 0.51,0 0.72,0.21 0.21,0.21 0.27,0.72 l 0.21,6.27 q 0.69,-1.83 1.56,-3.24 0.9,-1.44 2.04,-2.43 1.17,-0.99 2.58,-1.5 1.44,-0.54 3.18,-0.54 0.93,0 1.83,0.18 0.9,0.15 1.59,0.57 l -0.24,1.98 q -0.15,0.48 -0.57,0.48 -0.36,0 -1.11,-0.21 -0.72,-0.21 -1.92,-0.21 -1.74,0 -3.09,0.54 -1.35,0.54 -2.4,1.59 -1.05,1.02 -1.86,2.58 -0.78,1.53 -1.44,3.54 l 0,19.32 -2.88,0 z"
           style="font-style:normal;font-variant:normal;font-weight:300;font-stretch:normal;font-size:60px;font-family:Lato;-inkscape-font-specification:'Lato Light'"
           id="path4259" />
        <path
           d="m 361.3777,160.26409 q -0.27,0.51 -0.78,0.51 -0.39,0 -1.02,-0.54 -0.6,-0.57 -1.65,-1.23 -1.05,-0.69 -2.64,-1.26 -1.56,-0.57 -3.87,-0.57 -2.31,0 -4.08,0.66 -1.74,0.66 -2.94,1.8 -1.17,1.14 -1.8,2.64 -0.6,1.5 -0.6,3.15 0,2.16 0.9,3.57 0.93,1.41 2.43,2.4 1.5,0.99 3.39,1.68 1.92,0.66 3.93,1.32 2.01,0.66 3.9,1.47 1.92,0.78 3.42,1.98 1.5,1.2 2.4,2.97 0.93,1.74 0.93,4.35 0,2.67 -0.93,5.04 -0.9,2.34 -2.64,4.08 -1.74,1.74 -4.26,2.76 -2.52,0.99 -5.76,0.99 -4.2,0 -7.23,-1.47 -3.03,-1.5 -5.31,-4.08 l 0.84,-1.32 q 0.36,-0.45 0.84,-0.45 0.27,0 0.69,0.36 0.42,0.36 1.02,0.9 0.6,0.51 1.44,1.14 0.84,0.6 1.95,1.14 1.11,0.51 2.55,0.87 1.44,0.36 3.27,0.36 2.52,0 4.5,-0.75 1.98,-0.78 3.33,-2.1 1.38,-1.32 2.1,-3.12 0.72,-1.83 0.72,-3.9 0,-2.25 -0.93,-3.69 -0.9,-1.47 -2.4,-2.43 -1.5,-0.99 -3.42,-1.65 -1.89,-0.66 -3.9,-1.29 -2.01,-0.63 -3.93,-1.41 -1.89,-0.78 -3.39,-1.98 -1.5,-1.23 -2.43,-3.03 -0.9,-1.83 -0.9,-4.56 0,-2.13 0.81,-4.11 0.81,-1.98 2.37,-3.48 1.56,-1.53 3.84,-2.43 2.31,-0.93 5.25,-0.93 3.3,0 5.91,1.05 2.64,1.05 4.8,3.21 l -0.72,1.38 z"
           style="font-style:normal;font-variant:normal;font-weight:300;font-stretch:normal;font-size:60px;font-family:Lato;-inkscape-font-specification:'Lato Light'"
           id="path4261" />
        <path
           d="m 370.94114,197.55409 0,-43.65 2.88,0 0,18.87 q 2.07,-2.55 4.71,-4.05 2.67,-1.5 5.97,-1.5 2.46,0 4.32,0.78 1.89,0.78 3.12,2.25 1.23,1.47 1.86,3.54 0.63,2.07 0.63,4.68 l 0,19.08 -2.88,0 0,-19.08 q 0,-4.2 -1.92,-6.57 -1.92,-2.4 -5.85,-2.4 -2.94,0 -5.46,1.5 -2.52,1.47 -4.5,4.11 l 0,22.44 -2.88,0 z"
           style="font-style:normal;font-variant:normal;font-weight:300;font-stretch:normal;font-size:60px;font-family:Lato;-inkscape-font-specification:'Lato Light'"
           id="path4263" />
        <path
           d="m 422.34801,197.55409 q -0.9,0 -1.11,-0.84 l -0.42,-3.81 q -1.23,1.2 -2.46,2.16 -1.2,0.96 -2.52,1.62 -1.32,0.66 -2.85,0.99 -1.53,0.36 -3.36,0.36 -1.53,0 -2.97,-0.45 -1.44,-0.45 -2.58,-1.38 -1.11,-0.93 -1.8,-2.37 -0.66,-1.47 -0.66,-3.51 0,-1.89 1.08,-3.51 1.08,-1.62 3.39,-2.82 2.31,-1.2 5.91,-1.92 3.63,-0.72 8.7,-0.84 l 0,-3.12 q 0,-4.14 -1.8,-6.36 -1.77,-2.25 -5.28,-2.25 -2.16,0 -3.69,0.6 -1.5,0.6 -2.55,1.32 -1.05,0.72 -1.71,1.32 -0.66,0.6 -1.11,0.6 -0.33,0 -0.54,-0.15 -0.21,-0.15 -0.36,-0.39 l -0.51,-0.87 q 2.34,-2.34 4.92,-3.54 2.58,-1.2 5.85,-1.2 2.4,0 4.2,0.78 1.8,0.75 2.97,2.19 1.2,1.41 1.8,3.45 0.6,2.01 0.6,4.5 l 0,19.44 -1.14,0 z m -12,-1.59 q 1.74,0 3.18,-0.36 1.47,-0.39 2.7,-1.05 1.26,-0.69 2.34,-1.62 1.08,-0.93 2.13,-2.01 l 0,-7.77 q -4.26,0.12 -7.35,0.66 -3.09,0.51 -5.1,1.41 -1.98,0.9 -2.94,2.16 -0.93,1.23 -0.93,2.82 0,1.5 0.48,2.61 0.51,1.08 1.32,1.8 0.84,0.69 1.92,1.02 1.08,0.33 2.25,0.33 z"
           style="font-style:normal;font-variant:normal;font-weight:300;font-stretch:normal;font-size:60px;font-family:Lato;-inkscape-font-specification:'Lato Light'"
           id="path4265" />
        <path
           d="m 433.05051,197.55409 0,-29.85 1.53,0 q 0.51,0 0.72,0.21 0.21,0.21 0.27,0.72 l 0.21,6.27 q 0.69,-1.83 1.56,-3.24 0.9,-1.44 2.04,-2.43 1.17,-0.99 2.58,-1.5 1.44,-0.54 3.18,-0.54 0.93,0 1.83,0.18 0.9,0.15 1.59,0.57 l -0.24,1.98 q -0.15,0.48 -0.57,0.48 -0.36,0 -1.11,-0.21 -0.72,-0.21 -1.92,-0.21 -1.74,0 -3.09,0.54 -1.35,0.54 -2.4,1.59 -1.05,1.02 -1.86,2.58 -0.78,1.53 -1.44,3.54 l 0,19.32 -2.88,0 z"
           style="font-style:normal;font-variant:normal;font-weight:300;font-stretch:normal;font-size:60px;font-family:Lato;-inkscape-font-specification:'Lato Light'"
           id="path4267" />
        <path
           d="m 454.26145,208.11409 0,-40.41 1.59,0 q 0.75,0 0.87,0.75 l 0.27,4.62 q 1.98,-2.7 4.65,-4.29 2.67,-1.59 5.97,-1.59 5.49,0 8.55,3.81 3.09,3.81 3.09,11.43 0,3.27 -0.87,6.12 -0.84,2.82 -2.52,4.92 -1.65,2.07 -4.08,3.27 -2.4,1.2 -5.55,1.2 -3.03,0 -5.25,-1.11 -2.22,-1.11 -3.84,-3.27 l 0,14.55 -2.88,0 z m 12.54,-38.61 q -2.97,0 -5.37,1.53 -2.4,1.53 -4.29,4.26 l 0,15.75 q 1.71,2.58 3.78,3.63 2.07,1.02 4.77,1.02 2.64,0 4.62,-0.96 1.98,-0.96 3.3,-2.7 1.35,-1.77 2.01,-4.2 0.69,-2.46 0.69,-5.4 0,-6.66 -2.46,-9.78 -2.46,-3.15 -7.05,-3.15 z"
           style="font-style:normal;font-variant:normal;font-weight:300;font-stretch:normal;font-size:60px;font-family:Lato;-inkscape-font-specification:'Lato Light'"
           id="path4269" />
        <path
           d="m 498.97833,167.22409 q 2.52,0 4.68,0.87 2.16,0.87 3.75,2.55 1.59,1.65 2.49,4.08 0.93,2.43 0.93,5.58 0,0.66 -0.18,0.9 -0.18,0.24 -0.6,0.24 l -21.72,0 0,0.57 q 0,3.36 0.78,5.91 0.78,2.55 2.22,4.29 1.44,1.71 3.48,2.58 2.04,0.87 4.56,0.87 2.25,0 3.9,-0.48 1.65,-0.51 2.76,-1.11 1.14,-0.63 1.8,-1.11 0.66,-0.51 0.96,-0.51 0.39,0 0.6,0.3 l 0.78,0.96 q -0.72,0.9 -1.92,1.68 -1.17,0.78 -2.64,1.35 -1.44,0.54 -3.12,0.87 -1.65,0.33 -3.33,0.33 -3.06,0 -5.58,-1.05 -2.52,-1.08 -4.32,-3.12 -1.8,-2.04 -2.79,-4.98 -0.96,-2.97 -0.96,-6.78 0,-3.21 0.9,-5.91 0.93,-2.73 2.64,-4.68 1.74,-1.98 4.23,-3.09 2.52,-1.11 5.7,-1.11 z m 0.03,2.13 q -2.31,0 -4.14,0.72 -1.83,0.72 -3.18,2.07 -1.32,1.35 -2.16,3.24 -0.81,1.89 -1.08,4.23 l 19.8,0 q 0,-2.4 -0.69,-4.29 -0.66,-1.92 -1.89,-3.24 -1.23,-1.32 -2.94,-2.01 -1.68,-0.72 -3.72,-0.72 z"
           style="font-style:normal;font-variant:normal;font-weight:300;font-stretch:normal;font-size:60px;font-family:Lato;-inkscape-font-specification:'Lato Light'"
           id="path4271" />
        <path
           d="m 518.59739,197.55409 0,-29.85 1.59,0 q 0.75,0 0.87,0.75 l 0.27,4.5 q 2.07,-2.61 4.77,-4.17 2.7,-1.56 6.06,-1.56 2.46,0 4.32,0.78 1.89,0.78 3.12,2.25 1.23,1.47 1.86,3.54 0.63,2.07 0.63,4.68 l 0,19.08 -2.88,0 0,-19.08 q 0,-4.2 -1.92,-6.57 -1.92,-2.4 -5.85,-2.4 -2.94,0 -5.46,1.5 -2.52,1.47 -4.5,4.11 l 0,22.44 -2.88,0 z"
           style="font-style:normal;font-variant:normal;font-weight:300;font-stretch:normal;font-size:60px;font-family:Lato;-inkscape-font-specification:'Lato Light'"
           id="path4273" />
        <path
           d="m 554.82426,167.70409 0,29.85 -2.85,0 0,-29.85 2.85,0 z m 1.23,-10.29 q 0,0.54 -0.24,1.02 -0.21,0.45 -0.57,0.81 -0.36,0.36 -0.84,0.57 -0.48,0.21 -1.02,0.21 -0.54,0 -1.02,-0.21 -0.48,-0.21 -0.84,-0.57 -0.36,-0.36 -0.57,-0.81 -0.21,-0.48 -0.21,-1.02 0,-0.54 0.21,-1.02 0.21,-0.51 0.57,-0.87 0.36,-0.36 0.84,-0.57 0.48,-0.21 1.02,-0.21 0.54,0 1.02,0.21 0.48,0.21 0.84,0.57 0.36,0.36 0.57,0.87 0.24,0.48 0.24,1.02 z"
           style="font-style:normal;font-variant:normal;font-weight:300;font-stretch:normal;font-size:60px;font-family:Lato;-inkscape-font-specification:'Lato Light'"
           id="path4275" />
        <path
           d="m 565.00364,197.55409 0,-29.85 1.59,0 q 0.75,0 0.87,0.75 l 0.27,4.5 q 2.07,-2.61 4.77,-4.17 2.7,-1.56 6.06,-1.56 2.46,0 4.32,0.78 1.89,0.78 3.12,2.25 1.23,1.47 1.86,3.54 0.63,2.07 0.63,4.68 l 0,19.08 -2.88,0 0,-19.08 q 0,-4.2 -1.92,-6.57 -1.92,-2.4 -5.85,-2.4 -2.94,0 -5.46,1.5 -2.52,1.47 -4.5,4.11 l 0,22.44 -2.88,0 z"
           style="font-style:normal;font-variant:normal;font-weight:300;font-stretch:normal;font-size:60px;font-family:Lato;-inkscape-font-specification:'Lato Light'"
           id="path4277" />
        <path
           d="m 607.80051,167.19409 q 1.98,0 3.63,0.48 1.65,0.48 3,1.35 l 7.65,0 0,0.99 q 0,0.66 -0.84,0.81 l -4.56,0.33 q 0.84,1.14 1.29,2.58 0.45,1.41 0.45,3.03 0,2.16 -0.78,3.93 -0.75,1.74 -2.16,3 -1.38,1.23 -3.36,1.92 -1.95,0.69 -4.32,0.69 -2.58,0 -4.65,-0.78 -1.26,0.75 -2.01,1.74 -0.72,0.96 -0.72,1.89 0,1.29 0.9,1.98 0.93,0.69 2.4,1.02 1.5,0.3 3.39,0.39 1.92,0.09 3.9,0.21 1.98,0.09 3.87,0.36 1.92,0.27 3.39,0.96 1.5,0.66 2.4,1.89 0.93,1.2 0.93,3.21 0,1.86 -0.93,3.57 -0.93,1.71 -2.7,3.03 -1.74,1.32 -4.23,2.1 -2.49,0.81 -5.58,0.81 -3.15,0 -5.52,-0.66 -2.37,-0.63 -3.99,-1.74 -1.59,-1.08 -2.4,-2.52 -0.81,-1.44 -0.81,-3.06 0,-2.37 1.56,-4.05 1.56,-1.71 4.26,-2.67 -1.53,-0.51 -2.43,-1.47 -0.9,-0.96 -0.9,-2.67 0,-0.63 0.24,-1.32 0.24,-0.69 0.72,-1.35 0.48,-0.69 1.17,-1.29 0.69,-0.6 1.56,-1.08 -2.13,-1.23 -3.33,-3.27 -1.17,-2.04 -1.17,-4.77 0,-2.16 0.75,-3.9 0.78,-1.77 2.19,-3.03 1.41,-1.26 3.36,-1.95 1.98,-0.69 4.38,-0.69 z m 11.16,32.37 q 0,-1.41 -0.75,-2.25 -0.72,-0.87 -1.95,-1.35 -1.23,-0.48 -2.85,-0.66 -1.62,-0.18 -3.36,-0.27 -1.74,-0.12 -3.51,-0.21 -1.77,-0.09 -3.33,-0.36 -1.14,0.45 -2.1,1.05 -0.96,0.6 -1.65,1.35 -0.69,0.72 -1.08,1.59 -0.39,0.9 -0.39,1.92 0,1.32 0.66,2.43 0.69,1.14 1.98,1.95 1.32,0.84 3.21,1.32 1.89,0.48 4.35,0.48 2.28,0 4.23,-0.51 1.98,-0.51 3.42,-1.44 1.47,-0.93 2.28,-2.22 0.84,-1.29 0.84,-2.82 z m -11.16,-15.21 q 1.92,0 3.42,-0.54 1.5,-0.57 2.52,-1.56 1.02,-0.99 1.56,-2.37 0.54,-1.38 0.54,-3.06 0,-1.68 -0.57,-3.06 -0.54,-1.41 -1.59,-2.4 -1.02,-0.99 -2.52,-1.53 -1.47,-0.54 -3.36,-0.54 -1.89,0 -3.39,0.54 -1.47,0.54 -2.52,1.53 -1.02,0.99 -1.56,2.4 -0.54,1.38 -0.54,3.06 0,1.68 0.54,3.06 0.54,1.38 1.56,2.37 1.05,0.99 2.52,1.56 1.5,0.54 3.39,0.54 z"
           style="font-style:normal;font-variant:normal;font-weight:300;font-stretch:normal;font-size:60px;font-family:Lato;-inkscape-font-specification:'Lato Light'"
           id="path4279" />
      </g>
      <path
         style="fill:none;fill-opacity:1;stroke:#000000;stroke-width:0.99999988;stroke-linecap:round;stroke-linejoin:round;stroke-miterlimit:4;stroke-dasharray:none;stroke-opacity:1"
         d="M 459.70722,224.09054 A 144.5,144.5 0 0 1 321.46939,326.51256 144.5,144.5 0 0 1 183.24164,224.12366"
         id="path6229"
         inkscape:connector-curvature="0" />
      <path
         style="fill:none;fill-opacity:1;stroke:#000000;stroke-width:0.99999988;stroke-linecap:round;stroke-linejoin:round;stroke-miterlimit:4;stroke-dasharray:none;stroke-opacity:1"
         d="M 183.86065,137.92083 A 144.5,144.5 0 0 1 321.46939,37.512605 144.5,144.5 0 0 1 459.06804,137.88936"
         id="path6231"
         inkscape:connector-curvature="0" />
      <path
         style="opacity:1;fill:#000000;fill-opacity:1;fill-rule:evenodd;stroke:#000000;stroke-width:1px;stroke-linecap:butt;stroke-linejoin:miter;stroke-opacity:1"
         d="m 121.46939,219.08246 400,0 -32.38459,24 7.34252,-19 -346.95793,0 7,19 z"
         id="path6233"
         inkscape:connector-curvature="0"
         sodipodi:nodetypes="ccccccc" />
      <path
         sodipodi:nodetypes="ccccccc"
         inkscape:connector-curvature="0"
         id="path6235"
         d="m 121.46939,142.01125 400,0 -32.38459,-24 7.34252,19 -346.95793,0 7,-19 z"
         style="opacity:1;fill:#000000;fill-opacity:1;fill-rule:evenodd;stroke:#000000;stroke-width:1px;stroke-linecap:butt;stroke-linejoin:miter;stroke-opacity:1" />
    </g>
  </g>
</svg>
